<svg width="25" height="25" viewBox="0 0 25 25" fill="none" xmlns="http://www.w3.org/2000/svg">
<path d="M19.5 9.5C19.5 10.95 19.07 12.28 18.33 13.39C17.25 14.99 15.54 16.12 13.55 16.41C13.21 16.47 12.86 16.5 12.5 16.5C12.14 16.5 11.79 16.47 11.45 16.41C9.46 16.12 7.75 14.99 6.67 13.39C5.93 12.28 5.5 10.95 5.5 9.5C5.5 5.63 8.63 2.5 12.5 2.5C16.37 2.5 19.5 5.63 19.5 9.5Z" stroke="white" stroke-width="1.5" stroke-linecap="round" stroke-linejoin="round"/>
<path d="M21.7491 18.9704L20.0991 19.3604C19.7291 19.4504 19.4391 19.7304 19.3591 20.1004L19.0091 21.5704C18.8191 22.3704 17.7991 22.6104 17.2691 21.9804L12.4991 16.5004L7.7291 21.9904C7.1991 22.6204 6.1791 22.3804 5.9891 21.5804L5.6391 20.1104C5.5491 19.7404 5.2591 19.4504 4.8991 19.3704L3.2491 18.9804C2.4891 18.8004 2.2191 17.8504 2.7691 17.3004L6.6691 13.4004C7.7491 15.0004 9.4591 16.1304 11.4491 16.4204C11.7891 16.4804 12.1391 16.5104 12.4991 16.5104C12.8591 16.5104 13.2091 16.4804 13.5491 16.4204C15.5391 16.1304 17.2491 15.0004 18.3291 13.4004L22.2291 17.3004C22.7791 17.8404 22.5091 18.7904 21.7491 18.9704Z" stroke="white" stroke-width="1.5" stroke-linecap="round" stroke-linejoin="round"/>
<path d="M13.08 6.48L13.67 7.65999C13.75 7.81999 13.96 7.98 14.15 8.01L15.22 8.18999C15.9 8.29999 16.06 8.8 15.57 9.29L14.74 10.12C14.6 10.26 14.52 10.53 14.57 10.73L14.81 11.76C15 12.57 14.57 12.89 13.85 12.46L12.85 11.87C12.67 11.76 12.37 11.76 12.19 11.87L11.19 12.46C10.47 12.88 10.04 12.57 10.23 11.76L10.47 10.73C10.51 10.54 10.44 10.26 10.3 10.12L9.46997 9.29C8.97997 8.8 9.13997 8.30999 9.81997 8.18999L10.89 8.01C11.07 7.98 11.28 7.81999 11.36 7.65999L11.95 6.48C12.24 5.84 12.76 5.84 13.08 6.48Z" stroke="white" stroke-width="1.5" stroke-linecap="round" stroke-linejoin="round"/>
</svg>
